<svg xmlns="http://www.w3.org/2000/svg" xmlns:xlink="http://www.w3.org/1999/xlink" viewBox="0 0 2457.96 2457.96" width="50" height="50">
    <defs>
        <style>.cls-1{fill:url(#Sfumatura_senza_nome_46);}</style>
        <linearGradient id="Sfumatura_senza_nome_46" x1="557.36" y1="734.55" x2="1901.95" y2="2079.14" gradientUnits="userSpaceOnUse">
            <stop offset="0" stop-color="#43c4ff"/>
            <stop offset="0.87" stop-color="#111b35"/>
        </linearGradient>
    </defs>
    <g id="Livello_2" data-name="Livello 2">
        <g id="Livello_1-2" data-name="Livello 1">
            <circle cx="1228.98" cy="1228.98" r="1228.98"/>
            <path class="cls-1" d="M2153.37,1660.82l-91.4-540a323.55,323.55,0,0,0-42.5-114.86c-45.1-74.07-112-117.29-194.87-126.42V829.93a48,48,0,0,0-48-48c-1.07,0-107.85-.2-226.37-17.21-134.7-19.34-230.21-52.55-272.2-94.26v-243h201.51a48,48,0,0,0,0-96.05H980.45a48,48,0,0,0,0,96.05H1182v243c-41.87,41.59-137,74.75-271.14,94.1C792.23,781.66,684.45,781.9,683.39,781.9a48,48,0,0,0-48,48v46.55a280.66,280.66,0,0,0-65,14.36c-37.06,13.07-69,33.67-94.92,61.25-31.72,33.74-53.81,77.34-65.66,129.62-35.33,155.79-81.54,445.94-99.77,563.46q-.7,4.56-1.43,9.17c-6.55,41.53-14,88.6-1.39,136.42,13.28,50.49,52.81,112.46,124,135a179.8,179.8,0,0,0,54.56,8.29c50.42,0,116.64-19.75,196.28-86.59.29-.22.58-.46.87-.71l228.7-195c51.63,44.17,157.51,126,270.39,161.68v217.13H981.44a48,48,0,0,0,0,96h497.09a48,48,0,0,0,0-96H1278v-217c110.26-34.29,209.59-109.57,259-151.41,68.58,58.36,158.23,132.91,260.29,213.57a294.63,294.63,0,0,0,120.81,57.15,247.1,247.1,0,0,0,51,5.6,192.33,192.33,0,0,0,35.73-3.23,164.2,164.2,0,0,0,68.57-30c31.06-23.27,54.38-57.65,69.3-102.19C2157.82,1758,2161.5,1708.85,2153.37,1660.82ZM883.9,1549.11l-5.34,4.57L620.79,1773.49l-.25.2c-35.58,29.89-69,49.65-99.36,58.75-22.73,6.82-43.25,7.41-61,1.79-34-10.79-53.62-43.32-60.09-67.9-7.44-28.33-2.19-61.7,3.39-97,.49-3.14,1-6.28,1.48-9.41,14.1-90.92,62.86-399.78,98.51-556.93,13.9-61.33,46.17-101.86,95.91-120.47,35.17-13.16,68.46-11.61,76.38-11h.08a49.6,49.6,0,0,0,6.51.49c2.48.11,34.31,1.81,75.25,18.16,55.59,22.2,101.48,59.89,136.42,112a315.68,315.68,0,0,0,51.48,59.69c30.91,27.67,62.57,47.28,94.08,58.28a186.42,186.42,0,0,0,61.75,10.82,172.2,172.2,0,0,0,26.54-2c38.49-6,75.54-25.47,107.12-56.29,22.58-22.05,35-42.77,36.39-45.06a48,48,0,0,0-82.79-48.69c-.28.47-30.13,48.06-75.51,55.13-30.9,4.81-65.74-9.89-103.52-43.71a219.47,219.47,0,0,1-35.75-41.59C896.35,933.13,791.43,894.88,731.42,882.22v-5.4c44.62-1.72,115.49-6.08,192-17.06,74.71-10.72,139.33-25.62,192.08-44.3C1163,798.64,1200.91,779,1230,756c29.07,23,67,42.68,114.49,59.5,52.75,18.68,117.37,33.58,192.08,44.3,76.5,11,147.37,15.34,192,17.06v7a329.39,329.39,0,0,0-149.62,72.65Zm1167.75,223.43c-8.62,25.7-20.67,44.5-35.83,55.85-18.87,14.14-44.32,17.57-77.8,10.48a198.16,198.16,0,0,1-81.15-38.53c-195.66-154.64-345-286.38-386.11-323.07a186.91,186.91,0,0,0-99.34-46.28c-45.23-6.17-112.68,1.52-177.14,73.21a48,48,0,1,0,71.41,64.22c29.61-32.91,59.94-46.73,92.74-42.26a91.23,91.23,0,0,1,48.38,22.77c11.22,10,30.4,27,56.31,49.59-50,40.75-140.46,105.79-233.11,128.75-67.74-16.93-136.72-58.42-189.79-96.63-21-15.14-39.53-29.76-54.48-42.14l655.52-559c39-33.3,87.47-52.76,137.39-55.46l1,0c3.2-.16,6.41-.24,9.61-.26h1.38c65.1,0,113.12,26.88,146.77,82.14a228.23,228.23,0,0,1,29.83,80.95l91.41,540A198.22,198.22,0,0,1,2051.65,1772.54Z"/>
        </g>
    </g>
</svg>